inDegrees=no
num_controls=7
num_derivatives=13
num_iterations=94
num_multipliers=7
num_parameters=0
num_slacks=7
num_states=26
objective=0.469919
objective_accelerations=0.064414
objective_balance=0.002106
objective_effort=0.020427
objective_height=0.373416
objective_ligament=0.009556
solver_duration=1248.230355
status=Solve_Succeeded
success=true
DataType=double
version=3
OpenSimVersion=4.5
endheader
time	/jointset/ground_pelvis/pelvis_tilt/value	/jointset/ground_pelvis/pelvis_tx/value	/jointset/ground_pelvis/pelvis_ty/value	/jointset/hip_l/hip_flexion_l/value	/jointset/hip_l/hip_adduction_l/value	/jointset/hip_l/hip_rotation_l/value	/jointset/back/lumbar_extension/value	/jointset/patellofemoral_l/patellar_flexion_l/value	/jointset/knee_l/knee_flexion_l/value	/jointset/knee_l/knee_adduction_l/value	/jointset/knee_l/knee_rotation_l/value	/jointset/ankle_l/ankle_angle_l/value	/jointset/subtalar_l/subtalar_angle_l/value	/jointset/ground_pelvis/pelvis_tilt/speed	/jointset/ground_pelvis/pelvis_tx/speed	/jointset/ground_pelvis/pelvis_ty/speed	/jointset/hip_l/hip_flexion_l/speed	/jointset/hip_l/hip_adduction_l/speed	/jointset/hip_l/hip_rotation_l/speed	/jointset/back/lumbar_extension/speed	/jointset/patellofemoral_l/patellar_flexion_l/speed	/jointset/knee_l/knee_flexion_l/speed	/jointset/knee_l/knee_adduction_l/speed	/jointset/knee_l/knee_rotation_l/speed	/jointset/ankle_l/ankle_angle_l/speed	/jointset/subtalar_l/subtalar_angle_l/speed	/forceset/tau_hip_flexion_l	/forceset/tau_hip_adduction_l	/forceset/tau_hip_rotation_l	/forceset/tau_knee_flexion_l	/forceset/tau_ankle_angle_l	/forceset/tau_subtalar_angle_l	/forceset/tau_lumbar_extension	lambda_cid13_p0	lambda_cid13_p1	lambda_cid13_p2	lambda_cid13_p3	lambda_cid13_p4	lambda_cid13_p5	lambda_cid14_p0	/jointset/ground_pelvis/pelvis_tilt/accel	/jointset/ground_pelvis/pelvis_tx/accel	/jointset/ground_pelvis/pelvis_ty/accel	/jointset/hip_l/hip_flexion_l/accel	/jointset/hip_l/hip_adduction_l/accel	/jointset/hip_l/hip_rotation_l/accel	/jointset/back/lumbar_extension/accel	/jointset/patellofemoral_l/patellar_flexion_l/accel	/jointset/knee_l/knee_flexion_l/accel	/jointset/knee_l/knee_adduction_l/accel	/jointset/knee_l/knee_rotation_l/accel	/jointset/ankle_l/ankle_angle_l/accel	/jointset/subtalar_l/subtalar_angle_l/accel	gamma_cid13_p0	gamma_cid13_p1	gamma_cid13_p2	gamma_cid13_p3	gamma_cid13_p4	gamma_cid13_p5	gamma_cid14_p0
0.5	-0.4162247479360315	-0.06791023100708453	0.7745206836039108	1.192393634399041	-0.3523191837580021	-0.0641319114808809	-0.4089079974541239	0.715759686358829	0.7157596863588799	-0.05236397307400908	-0.1745000159080405	0.04492549139860897	0.08230432499051102	-1.311453931507688	-0.4001117785768422	-0.5055588406709604	2.892253411368098	0.04285682806492799	0.4360267546468513	-0.2803961566736944	1.353999775819554	1.35399977581976	0.2105331720927379	0.0005191362073293361	-0.1255341945150604	0.001900542761655234	-0.1657257609766407	0.004659286678620718	0.005029003337363776	-0.1487964481202359	0.1046106773139035	0.005184786514597256	0.1505978025713563	8.690267603082704	-2.775415399910894	-0.9784208905922723	-10.20618613701075	-436.2004926672098	-63.74079031789147	-14.5394012151004	0.5165094263397199	0.7536219037606715	-0.3655211453626911	-1.784108950540529	0.1028700695477127	-0.3771879357027144	1.630586979439594	-1.061853109478559	-1.061853109478488	-0.432549680322446	0.07298345473895704	0.07919705148801656	0.1337820634604843	6.637055744523355e-09	-1.313930325827676e-06	-6.741990106515285e-07	-2.921440490080796e-07	-2.20179019579505e-07	1.991595122163256e-07	-1.547139894068013e-07
0.51	-0.4293109313013361	-0.0718730230112298	0.7694481331581725	1.221221684193289	-0.3518862748617474	-0.05979454600322157	-0.4116315387493761	0.7292443522333504	0.7292443522334472	-0.05027978771109492	-0.1744947402888997	0.04367421454330543	0.08232925556435801	-1.305625585230247	-0.3923899358008078	-0.5088287079005674	2.872957108445247	0.04371251321004593	0.4313984495318746	-0.264317499498087	1.342726047674154	1.342726047674276	0.2062868250268722	0.0005351469718069697	-0.124696516321715	0.003080226333658866	-0.1722309095096261	0.005180701695132962	0.004550568749722398	-0.1497651061583619	0.107397583774738	0.005860300321321038	0.1551447557625025	9.432812957131416	-3.029334236762674	-1.131515793667494	-10.91381267210411	-439.9151583822518	-63.90696086620515	-13.98747712749633	0.6395490971300485	0.7899057974781257	-0.2893729827614148	-2.062329064782719	0.07537848507831608	-0.5129219124300516	1.595695518422883	-1.191208568855396	-1.191208568868158	-0.4235453160212779	-0.03432219951589384	0.08969645088724017	0.1095739805306733	3.870879631073252e-09	-1.230473379278943e-06	-6.193123423033885e-07	-2.793833561316383e-07	-2.059022887264726e-07	2.189617093981038e-07	-1.513256654686471e-07
0.52	-0.4423341208301301	-0.07575690852102406	0.7643465533459378	1.249844783337982	-0.3514451169644251	-0.05550491759932319	-0.4141944553865119	0.7426100656460574	0.7426100656462084	-0.04823863943807227	-0.1744893509794858	0.04243204311946125	0.08236588546921716	-1.298855164205454	-0.3843304797066358	-0.5113647139702368	2.851263281457386	0.044506628278549	0.4264793398954998	-0.2482712250504157	1.330209283457366	1.330209283457402	0.2019257541088983	0.0005418742635624558	-0.1237131082231924	0.004240408964076517	-0.178736058042617	0.005702116711620771	0.004072134162175689	-0.1507337641964941	0.1101844902355637	0.00653581412801548	0.1596917089536491	10.17431119599263	-3.282692645331666	-1.28513130536661	-11.62234372476999	-443.6483787724895	-64.08513236067802	-13.43909831679052	0.7049243758099957	0.8211445673882133	-0.218748913375117	-2.263613763542473	0.09055605422473706	-0.4353488399823296	1.624110433852394	-1.310460323756245	-1.310460323756218	-0.4554944507440615	0.07112676019449349	0.1083430325234531	0.1298818751432788	-4.302414010874163e-08	-9.98910947208378e-07	-1.463659511490669e-07	-2.111130560522651e-07	-2.728085327388709e-07	3.1659103940352e-07	-1.862322812854939e-07
0.53	-0.4552847464537802	-0.07955890504204993	0.7592232257951049	1.278239319912601	-0.3509967553813461	-0.05126449860728118	-0.4165972859237582	0.7558444501033025	0.7558444501033403	-0.04624317280920283	-0.1744832211211564	0.04119986135387698	0.08241338216913527	-1.291095483529717	-0.3760516300529119	-0.5131840873560907	2.827285781501293	0.04516544521910287	0.4214941189716193	-0.2323201835836774	1.316475147632856	1.316475147632876	0.1972155769917756	0.0006378867435731046	-0.1227389495345595	0.005255235446181926	-0.1859681303578448	0.006760005514415704	0.003536922726028837	-0.1500030085155332	0.110130565412268	0.007288530226612271	0.1645474561293661	9.998339664420254	-3.493186444126787	-1.349347894528372	-11.37858519436001	-447.2472207422873	-64.00388867878607	-12.89444170373894	0.8376317302915295	0.8337992804207416	-0.1460868153974858	-2.518590256388811	0.0536583235472582	-0.5468219164898637	1.576805825362517	-1.433718351837846	-1.433718351840283	-0.4717679328566026	-0.02802997215775581	0.08956018065884939	0.08685610815533222	-8.795265654534939e-08	-6.640802483152882e-07	4.132553239548261e-07	-1.215424891328213e-07	-3.332805518435776e-07	4.032579067986404e-07	-2.104851180834066e-07
